<?xml version="1.0" standalone="no"?>
<!DOCTYPE svg PUBLIC "-//W3C//DTD SVG 20010904//EN"
 "http://www.w3.org/TR/2001/REC-SVG-20010904/DTD/svg10.dtd">
<svg version="1.0" xmlns="http://www.w3.org/2000/svg"
 width="428.000000pt" height="428.000000pt" viewBox="0 0 428.000000 428.000000"
 preserveAspectRatio="xMidYMid meet">
<metadata>
Created by potrace 1.11, written by Peter Selinger 2001-2013
</metadata>
<g transform="translate(0.000000,428.000000) scale(0.100000,-0.100000)"
fill="#000000" stroke="none">
<path d="M3680 3993 c-66 -7 -200 -29 -270 -44 -118 -25 -352 -104 -490 -165
-88 -39 -250 -122 -297 -151 -29 -18 -57 -33 -63 -33 -5 0 -10 -4 -10 -9 0 -5
-9 -13 -20 -16 -11 -3 -26 -12 -32 -18 -7 -7 -37 -27 -65 -46 -29 -18 -53 -37
-53 -41 0 -5 -8 -11 -17 -14 -10 -4 -32 -19 -49 -34 -18 -15 -46 -38 -63 -52
-143 -113 -387 -347 -501 -479 -30 -35 -62 -72 -71 -82 -8 -10 -24 -30 -35
-44 -74 -101 -126 -172 -134 -182 -6 -7 -10 -14 -10 -17 0 -2 -20 -38 -44 -79
-99 -166 -153 -320 -160 -447 -3 -60 18 -169 42 -217 43 -84 100 -110 232
-107 189 4 377 69 615 212 53 31 105 62 116 68 12 7 26 17 32 23 19 19 47 13
48 -11 3 -69 -5 -118 -36 -216 -22 -68 -116 -267 -134 -282 -3 -3 -26 -35 -51
-73 -25 -37 -48 -67 -52 -67 -5 0 -8 -5 -8 -11 0 -6 -12 -23 -27 -38 -16 -16
-37 -40 -49 -55 -52 -66 -214 -224 -307 -299 -67 -54 -252 -177 -266 -177 -5
0 -11 -3 -13 -8 -3 -8 -49 -33 -168 -92 -227 -113 -455 -156 -626 -119 -33 7
-62 12 -66 11 -5 -1 -8 3 -8 8 0 6 -7 10 -16 10 -33 0 -119 62 -166 118 -46
56 -60 102 -61 197 -1 137 35 298 118 521 71 189 120 290 260 533 28 48 101
156 107 159 5 2 8 8 8 13 0 5 6 17 14 26 8 10 38 50 67 88 29 39 58 75 64 82
5 6 24 28 40 49 135 165 382 417 561 571 27 23 60 52 74 64 14 12 63 51 110
88 47 36 87 69 88 73 2 5 8 8 13 8 6 0 20 9 32 21 12 11 74 55 137 97 63 42
121 83 128 90 7 6 17 12 21 12 4 0 32 14 62 31 30 17 45 28 34 24 -11 -4 -24
-8 -30 -9 -37 -10 -321 -147 -378 -183 -23 -14 -58 -36 -77 -48 -107 -66 -265
-173 -315 -213 -5 -4 -28 -21 -50 -37 -22 -17 -45 -34 -51 -40 -6 -5 -38 -32
-70 -60 -129 -110 -280 -257 -384 -375 -97 -109 -103 -117 -127 -147 -12 -15
-30 -37 -40 -48 -10 -11 -43 -54 -73 -95 -30 -41 -58 -76 -62 -78 -5 -2 -8
-10 -8 -18 0 -8 -4 -14 -8 -14 -5 0 -15 -12 -23 -27 -8 -16 -17 -30 -20 -33
-9 -7 -132 -198 -155 -240 -10 -19 -22 -37 -26 -40 -3 -3 -44 -79 -91 -170
-293 -574 -340 -946 -145 -1151 148 -155 364 -189 718 -113 14 3 36 7 50 10
74 14 312 94 425 142 238 103 502 265 675 414 8 7 29 25 47 39 114 92 361 330
460 444 92 106 112 131 143 175 13 19 27 37 30 40 36 31 225 371 213 383 -3 4
-1 7 5 7 7 0 11 3 10 8 0 4 2 14 5 22 55 139 64 264 26 402 -13 51 -74 113
-123 126 -47 13 -203 9 -268 -7 -27 -6 -51 -10 -55 -9 -5 0 -19 -3 -33 -9 -14
-6 -58 -21 -97 -34 -40 -12 -73 -27 -73 -31 0 -4 -6 -8 -13 -8 -18 0 -67 -24
-67 -32 0 -5 -6 -8 -13 -8 -7 0 -62 -30 -122 -66 -165 -99 -177 -105 -183
-100 -7 8 -6 104 2 156 17 104 74 238 153 363 24 37 43 70 43 72 0 5 27 39 53
67 9 10 17 20 17 23 0 19 235 265 335 351 92 79 384 274 410 274 3 0 17 8 32
17 14 10 33 18 42 20 9 1 17 7 19 12 2 6 10 11 18 11 7 0 31 9 53 21 22 11 48
22 58 24 10 2 19 4 21 5 1 2 5 3 10 5 4 1 19 7 35 13 15 7 38 14 50 16 12 2
42 9 67 14 25 6 62 13 84 16 21 4 42 9 47 12 5 3 9 2 9 -3 0 -4 31 -7 68 -6
72 1 212 -24 212 -39 0 -4 7 -8 15 -8 23 0 94 -48 132 -87 59 -63 77 -116 77
-223 0 -111 -6 -160 -40 -295 -25 -99 -32 -122 -82 -260 -37 -105 -84 -207
-167 -365 -41 -78 -137 -234 -147 -238 -4 -2 -8 -8 -8 -13 0 -11 -98 -149
-116 -165 -8 -6 -11 -14 -7 -17 3 -4 2 -7 -4 -7 -5 0 -25 -21 -44 -47 -18 -26
-40 -55 -49 -64 -8 -8 -35 -40 -60 -70 -67 -80 -403 -416 -495 -494 -44 -37
-91 -77 -105 -89 -14 -11 -49 -39 -78 -61 -28 -21 -52 -43 -52 -47 0 -4 -7 -8
-15 -8 -8 0 -15 -4 -15 -10 0 -5 -4 -10 -10 -10 -9 0 -34 -18 -64 -46 -21 -19
-170 -119 -238 -159 -38 -21 -68 -42 -68 -46 0 -3 35 11 78 31 42 21 104 50
137 65 33 16 62 31 65 34 3 4 24 15 48 25 23 11 42 23 42 28 0 4 5 8 11 8 6 0
31 14 56 30 24 17 46 30 48 30 8 0 230 154 285 197 30 24 60 47 65 51 48 36
114 91 132 109 12 13 25 23 28 23 7 0 307 301 349 351 79 92 180 220 245 309
22 30 44 60 48 65 4 6 14 22 22 38 8 15 18 27 23 27 4 0 8 5 8 11 0 6 11 25
24 42 29 39 105 166 150 252 12 22 23 42 26 45 10 10 110 219 148 310 36 88
66 169 77 216 3 10 14 53 25 94 59 219 56 383 -9 506 -66 123 -208 215 -371
240 -34 6 -140 10 -170 7z"/>
<path d="M2326 3504 c-11 -8 -16 -14 -10 -14 13 0 39 18 34 24 -3 2 -14 -2
-24 -10z"/>
</g>
</svg>
